<?xml version="1.0" encoding="utf-8"?>
<!-- Generator: Adobe Illustrator 22.1.0, SVG Export Plug-In . SVG Version: 6.00 Build 0)  -->
<svg version="1.1" id="Layer_1" xmlns="http://www.w3.org/2000/svg" xmlns:xlink="http://www.w3.org/1999/xlink" x="0px" y="0px"
	 viewBox="0 0 830.3 263" style="enable-background:new 0 0 830.3 263;" xml:space="preserve">
<style type="text/css">
	.st0{fill:#58595B;}
	.st1{fill:url(#SVGID_1_);}
</style>
<g>
	<path class="st0" d="M110.4,145.3c0-5.9-2.1-10.6-6.2-14c-4.2-3.4-11.7-6.7-22.8-9.8c-11-3.1-19.1-6.5-24.2-10.1
		c-7.2-5.2-10.8-12-10.8-20.4c0-8.2,3.4-14.8,10.1-19.9c6.7-5.1,15.3-7.7,25.7-7.7c7.1,0,13.4,1.4,19,4.1c5.6,2.7,9.9,6.5,13,11.4
		c3.1,4.9,4.6,10.3,4.6,16.3h-9.1c0-7.3-2.5-13.2-7.5-17.6c-5-4.4-11.7-6.6-20.1-6.6c-8.2,0-14.6,1.8-19.5,5.5
		c-4.8,3.6-7.3,8.4-7.3,14.3c0,5.4,2.2,9.9,6.5,13.3c4.3,3.4,11.3,6.4,20.9,9.1c9.6,2.6,16.8,5.3,21.8,8.1
		c4.9,2.8,8.6,6.2,11.1,10.1c2.5,3.9,3.7,8.5,3.7,13.8c0,8.4-3.4,15.1-10.1,20.2c-6.7,5.1-15.6,7.6-26.6,7.6c-7.5,0-14.4-1.3-20.7-4
		c-6.3-2.7-11-6.4-14.3-11.3c-3.2-4.8-4.9-10.4-4.9-16.6h9c0,7.5,2.8,13.5,8.4,17.8c5.6,4.3,13.1,6.5,22.4,6.5c8.3,0,15-1.8,20-5.5
		C107.9,156.2,110.4,151.3,110.4,145.3z"/>
	<path class="st0" d="M150.5,72v20.3h16.4v7.2h-16.4v52.9c0,4.4,0.8,7.7,2.4,9.8c1.6,2.2,4.2,3.2,7.9,3.2c1.5,0,3.8-0.2,7.1-0.7
		l0.4,7.1c-2.3,0.8-5.4,1.2-9.4,1.2c-6,0-10.4-1.7-13.1-5.2c-2.7-3.5-4.1-8.6-4.1-15.4V99.4h-14.6v-7.2h14.6V72H150.5z"/>
	<path class="st0" d="M221.7,99.7c-1.9-0.3-3.8-0.5-5.9-0.5c-5.5,0-10.1,1.5-13.9,4.6c-3.8,3.1-6.5,7.5-8.1,13.3v54.4H185V92.3h8.6
		l0.1,12.6c4.6-9.4,12.1-14.1,22.3-14.1c2.4,0,4.4,0.3,5.8,1L221.7,99.7z"/>
	<path class="st0" d="M264.8,173c-6.7,0-12.8-1.7-18.3-5c-5.4-3.3-9.7-7.9-12.7-13.9c-3-5.9-4.5-12.6-4.5-20V131
		c0-7.6,1.5-14.5,4.4-20.6c3-6.1,7.1-10.9,12.3-14.4c5.3-3.5,11-5.2,17.1-5.2c9.6,0,17.2,3.3,22.9,9.9c5.6,6.6,8.5,15.5,8.5,26.9
		v4.9H238v1.7c0,9,2.6,16.5,7.7,22.4c5.2,6,11.6,9,19.4,9c4.7,0,8.8-0.9,12.4-2.6c3.6-1.7,6.8-4.4,9.8-8.2l5.5,4.2
		C286.4,168.3,277,173,264.8,173z M263.2,98.3c-6.6,0-12.1,2.4-16.7,7.3c-4.5,4.8-7.3,11.3-8.2,19.5h47.5v-1
		c-0.2-7.6-2.4-13.8-6.5-18.6C275.2,100.7,269.8,98.3,263.2,98.3z"/>
	<path class="st0" d="M361.6,171.5c-0.9-2.5-1.4-6.2-1.7-11.1c-3.1,4-7,7.1-11.8,9.3c-4.8,2.2-9.8,3.3-15.1,3.3
		c-7.6,0-13.8-2.1-18.5-6.4c-4.7-4.2-7.1-9.6-7.1-16.1c0-7.7,3.2-13.8,9.6-18.3c6.4-4.5,15.4-6.7,26.8-6.7h15.9v-9
		c0-5.7-1.7-10.1-5.2-13.4c-3.5-3.2-8.6-4.9-15.3-4.9c-6.1,0-11.2,1.6-15.2,4.7c-4,3.1-6,6.9-6,11.3l-8.8-0.1
		c0-6.3,2.9-11.8,8.8-16.4s13.1-6.9,21.6-6.9c8.8,0,15.8,2.2,20.9,6.6c5.1,4.4,7.7,10.6,7.9,18.5v37.5c0,7.7,0.8,13.4,2.4,17.2v0.9
		H361.6z M334.1,165.2c5.9,0,11.1-1.4,15.7-4.2c4.6-2.8,8-6.6,10.1-11.4v-17.4h-15.7c-8.7,0.1-15.6,1.7-20.5,4.8
		c-4.9,3.1-7.4,7.4-7.4,12.8c0,4.4,1.6,8.1,4.9,11.1S328.8,165.2,334.1,165.2z"/>
	<path class="st0" d="M399.9,92.3l0.3,12.9c2.9-4.8,6.6-8.4,11-10.8c4.4-2.4,9.3-3.6,14.6-3.6c12.5,0,20.4,5.1,23.8,15.4
		c2.8-4.9,6.6-8.7,11.4-11.4c4.7-2.7,10-4,15.7-4c17,0,25.7,9.3,26,27.8v52.9h-8.8v-52.2c0-7.1-1.6-12.3-4.6-15.7
		c-3-3.4-7.9-5.1-14.7-5.1c-6.3,0.1-11.6,2.1-16,6.1c-4.3,4-6.8,8.8-7.3,14.5v52.4h-8.8v-52.9c0-6.8-1.6-11.9-4.8-15.2
		c-3.2-3.3-8-5-14.5-5c-5.5,0-10.3,1.6-14.2,4.7s-6.9,7.8-8.8,14v54.3h-8.8V92.3H399.9z"/>
	<path class="st0" d="M606.7,64.9l43.9,100.9l44-100.9h5.8v106.6h-4V70.7l-44.2,100.8H649L605,71.2v100.3h-4V64.9H606.7z"/>
	<path class="st0" d="M733.7,167.5h54.7v4h-58.7V64.9h4V167.5z"/>
</g>
<linearGradient id="SVGID_1_" gradientUnits="userSpaceOnUse" x1="0" y1="125.936" x2="830.25" y2="125.936">
	<stop  offset="0" style="stop-color:#00EFFF"/>
	<stop  offset="0.2524" style="stop-color:#2ADAFF"/>
	<stop  offset="0.8183" style="stop-color:#94A6FF"/>
	<stop  offset="1" style="stop-color:#B794FF"/>
</linearGradient>
<path class="st1" d="M510,207c0,5.5-4.5,10-10,10H47.9c-3.9,8.8-12.7,15-22.9,15c-13.8,0-25-11.2-25-25s11.2-25,25-25
	c10.3,0,19.1,6.2,22.9,15H500C505.5,197,510,201.5,510,207z M521.9,248.9c32.1-32.1,49.8-74.8,49.8-120.2
	c0-45.4-17.7-88.1-49.8-120.2c-3.9-3.9-10.2-3.9-14.1,0c-3.9,3.9-3.9,10.2,0,14.1c28.4,28.4,44,66,44,106.1s-15.6,77.7-44,106.1
	c-3.9,3.9-3.9,10.2,0,14.1c2,2,4.5,2.9,7.1,2.9C517.3,251.9,519.9,250.9,521.9,248.9z M818.3,0h-26c-6.6,0-12,5.4-12,12v3H569.7
	c-5.5,0-10,4.5-10,10s4.5,10,10,10h210.6v3c0,6.6,5.4,12,12,12h26c6.6,0,12-5.4,12-12V12C830.3,5.4,824.8,0,818.3,0z"/>
</svg>
